<?xml version="1.0" encoding="UTF-8" standalone="no"?>
<svg
   viewBox="0 0 95.999997 95.999999"
   height="96"
   width="96"
   id="svg2"
   version="1.1"
   sodipodi:docname="logo.svg"
   inkscape:version="1.2.2 (b0a8486541, 2022-12-01)"
   xmlns:inkscape="http://www.inkscape.org/namespaces/inkscape"
   xmlns:sodipodi="http://sodipodi.sourceforge.net/DTD/sodipodi-0.dtd"
   xmlns="http://www.w3.org/2000/svg"
   xmlns:svg="http://www.w3.org/2000/svg"
   xmlns:rdf="http://www.w3.org/1999/02/22-rdf-syntax-ns#"
   xmlns:cc="http://creativecommons.org/ns#"
   xmlns:dc="http://purl.org/dc/elements/1.1/">
  <sodipodi:namedview
     id="namedview7"
     pagecolor="#ffffff"
     bordercolor="#000000"
     borderopacity="0.25"
     inkscape:showpageshadow="2"
     inkscape:pageopacity="0.0"
     inkscape:pagecheckerboard="0"
     inkscape:deskcolor="#d1d1d1"
     showgrid="false"
     inkscape:zoom="8.5416667"
     inkscape:cx="37.697561"
     inkscape:cy="56.780488"
     inkscape:window-width="1920"
     inkscape:window-height="998"
     inkscape:window-x="0"
     inkscape:window-y="32"
     inkscape:window-maximized="1"
     inkscape:current-layer="g3701" />
  <metadata
     id="metadata8">
    <rdf:RDF>
      <cc:Work
         rdf:about="">
        <dc:format>image/svg+xml</dc:format>
        <dc:type
           rdf:resource="http://purl.org/dc/dcmitype/StillImage" />
      </cc:Work>
    </rdf:RDF>
  </metadata>
  <defs
     id="defs6" />
  <g
     transform="matrix(0.51987935,0,0,0.51987896,-281.79331,-53.730531)"
     id="g3701">
    <path
       id="path3703"
       d="m 618.0923,287.77859 c -7.05807,-1.02135 -14.65048,-4.52798 -19.34745,-8.93579 -7.81854,-7.33729 -9.93238,-18.84383 -5.20405,-28.32862 2.41489,-4.84421 5.98561,-8.09896 10.68482,-9.73929 1.70684,-0.5958 2.11524,-0.64539 5.31556,-0.64539 3.20032,0 3.60871,0.0496 5.31556,0.64539 5.01034,1.74895 8.23857,4.95908 9.23523,9.18352 1.75357,7.43249 -4.25012,14.47959 -10.99899,12.9106 -3.93306,-0.91437 -6.43573,-3.97786 -6.15043,-7.5287 0.32449,-4.03908 4.36366,-6.84811 7.8984,-5.49294 0.30528,0.11704 0.39793,0.0711 0.32794,-0.16228 -0.0537,-0.17898 -0.8194,-0.68909 -1.70163,-1.13357 -1.51493,-0.76327 -1.73267,-0.80816 -3.92062,-0.80816 -2.12821,0 -2.44389,0.0603 -3.88242,0.74103 -3.44583,1.63073 -5.96295,5.63869 -6.6594,10.60373 -0.74568,5.31581 1.51056,11.21265 5.62455,14.70026 3.23361,2.74129 7.9989,5.0064 12.76957,6.06985 2.59455,0.57837 8.38102,0.69358 11.24134,0.22384 7.88868,-1.29552 14.99707,-5.60894 19.67087,-11.93637 4.56502,-6.18017 7.66052,-13.45348 9.0763,-21.32594 0.51132,-2.8433 0.70441,-9.99692 0.35891,-13.29904 -0.97755,-9.34358 -4.762,-18.56118 -10.65163,-25.94353 -2.00303,-2.51072 -5.65096,-6.2095 -6.00714,-6.09089 -0.16027,0.0534 -0.91021,1.28744 -1.66653,2.74234 -7.84793,15.09693 -21.83981,26.01333 -38.57756,30.09803 -4.64385,1.13328 -7.51086,1.52033 -12.44897,1.68059 -11.67659,0.37897 -22.89776,-2.52573 -30.50665,-7.89689 -7.9341,-5.60074 -13.19058,-13.60646 -15.30811,-23.31456 -0.68103,-3.12228 -0.73284,-10.44514 -0.0963,-13.61477 1.21104,-6.03058 3.3134,-10.35269 6.82861,-14.03854 4.90875,-5.14704 11.15163,-7.79471 18.36059,-7.78694 6.06978,0.006 10.97132,1.8038 14.48015,5.30943 3.42955,3.42643 5.07363,7.78009 4.7896,12.68315 -0.3654,6.3076 -4.06321,10.73583 -9.96967,11.939 -2.13217,0.43432 -4.21342,0.23892 -6.43951,-0.60459 -1.74788,-0.6623 -3.78133,-2.53666 -4.68349,-4.31705 -0.62065,-1.22485 -0.68161,-1.55288 -0.67919,-3.65464 0.003,-1.97268 0.0841,-2.47363 0.5612,-3.43925 1.60557,-3.24905 5.52074,-4.81054 8.84746,-3.52867 1.92898,0.74329 3.64645,3.14057 3.64645,5.08977 0,0.33451 0.1,0.60819 0.2222,0.60819 0.40414,0 0.74804,-1.91873 0.66067,-3.68609 -0.21097,-4.26732 -3.22835,-7.43962 -8.04731,-8.46045 -2.34094,-0.49588 -6.21114,-0.32557 -8.43555,0.37121 -8.27458,2.59197 -12.82666,9.72096 -12.82666,20.08777 0,10.78333 5.6716,20.26978 15.49211,25.91241 2.97829,1.71127 8.60372,3.43381 13.85898,4.24372 3.19328,0.49212 11.07639,0.55975 14.09776,0.12094 13.67796,-1.98652 25.54568,-8.64084 33.81967,-18.96294 1.87089,-2.33398 4.03543,-5.69011 5.32705,-8.2595 1.23343,-2.45368 1.24302,-2.43286 -1.2445,-2.70312 -2.13314,-0.23174 -6.52599,-1.17205 -9.2433,-1.97857 -19.01378,-5.64343 -34.23635,-20.83112 -39.66069,-39.56989 -2.33937,-8.0814 -2.90207,-16.98372 -1.48458,-23.48704 1.04358,-4.78778 3.16521,-9.68754 5.89215,-13.60747 1.97266,-2.83564 6.87707,-7.63321 9.7142,-9.50256 6.27757,-4.13623 12.78361,-6.27533 20.00738,-6.57818 7.51875,-0.31522 13.80511,1.92663 18.91458,6.74533 4.40397,4.15337 6.9828,9.32495 7.64415,15.32973 0.92244,8.37554 -3.90956,15.79293 -11.89948,18.26626 -2.23805,0.69281 -5.78097,0.86903 -7.67857,0.38192 -4.80346,-1.23304 -8.36607,-5.06545 -9.08514,-9.77316 -0.60532,-3.96285 1.27759,-7.62379 4.81525,-9.36231 1.43075,-0.70313 1.70752,-0.75749 3.85603,-0.75749 2.10569,0 2.41172,0.057 3.38959,0.63133 1.50027,0.88115 2.90159,2.54842 3.31727,3.94686 0.89909,3.02484 -0.12172,5.6117 -2.75745,6.9877 -0.70783,0.36952 -1.28721,0.76432 -1.28752,0.87734 0,0.3037 2.42112,-2.3e-4 3.7201,-0.46702 2.30885,-0.8295 4.65992,-3.20258 5.4599,-5.51099 0.27237,-0.78594 0.39409,-1.8179 0.38126,-3.23261 -0.0661,-7.30225 -5.13378,-13.75175 -12.46113,-15.8591 -2.55503,-0.73483 -7.43799,-0.72488 -10.96734,0.0224 -12.00142,2.54092 -21.14435,11.78696 -23.49574,23.76076 -0.51996,2.64779 -0.51116,8.42265 0.0187,12.13987 2.86864,20.13148 17.89533,36.72157 37.86229,41.80144 3.65597,0.93013 7.24241,1.4753 7.56764,1.15035 0.14283,-0.14269 0.14614,-0.51662 0.009,-1.02574 -1.09519,-4.06988 -1.41693,-13.96546 -0.62293,-19.15783 2.55458,-16.70593 11.58773,-30.92858 25.52278,-40.18541 6.31341,-4.1939 13.26347,-7.12843 20.0449,-8.4636 3.23435,-0.6368 10.73028,-0.56808 13.98219,0.1282 10.55447,2.25981 19.24554,8.09999 24.78744,16.6565 3.30163,5.09762 4.99382,9.96219 5.20167,14.95336 0.13254,3.18277 -0.14762,5.4213 -1.03278,8.25217 -2.42789,7.76452 -8.91186,14.05175 -16.8272,16.31658 -2.19619,0.6284 -6.37054,0.73516 -8.41481,0.21521 -3.2241,-0.82006 -6.22887,-2.53166 -8.41442,-4.79311 -1.68256,-1.74105 -2.51148,-2.98475 -3.38998,-5.08642 -2.00162,-4.78848 -1.15533,-9.29709 2.42282,-12.90788 1.82702,-1.84368 3.70926,-2.87818 6.0717,-3.33714 3.64318,-0.70775 7.70021,1.3646 9.44597,4.82502 0.55996,1.10999 0.65782,1.57933 0.65708,3.15144 0,1.55035 -0.099,2.03274 -0.61134,3.00171 -1.26508,2.39259 -3.31181,3.68026 -5.8517,3.68146 -1.83688,7.1e-4 -2.73222,-0.36432 -4.09798,-1.67152 -0.47433,-0.45398 -0.93136,-0.75657 -1.01559,-0.67241 -0.31744,0.31715 0.69011,2.29517 1.77092,3.47667 1.97918,2.16358 5.21177,3.39518 7.94319,3.0263 3.70746,-0.50068 7.96301,-3.23163 10.44003,-6.69971 2.14911,-3.00893 3.0948,-5.96816 3.0948,-9.68412 0,-2.69363 -0.37072,-4.45917 -1.51721,-7.22634 -3.82999,-9.2438 -11.99701,-15.83241 -22.28041,-17.97429 -2.71816,-0.56616 -8.58286,-0.56679 -11.42496,-8.9e-4 -4.33124,0.86188 -9.94254,3.09295 -14.29724,5.68464 -12.91608,7.68692 -21.59289,20.22636 -24.23032,35.01686 -0.70931,3.97788 -0.76199,11.73876 -0.10677,15.73341 0.23469,1.43076 0.51326,2.65483 0.61909,2.72018 0.10583,0.0654 1.47116,-0.52173 3.03412,-1.30462 6.17961,-3.0954 12.38702,-4.99994 19.59722,-6.01275 2.86293,-0.40216 12.1352,-0.40985 14.90667,-0.0124 6.90506,0.99033 13.3514,2.94401 19.1822,5.81352 12.6397,6.22038 22.75326,16.76702 26.56206,27.69956 1.53565,4.40776 1.84978,6.43552 1.84428,11.90447 -0.004,4.11321 -0.0818,5.20444 -0.51186,7.19205 -1.03461,4.78176 -3.05957,9.53912 -5.80708,13.64295 -2.69709,4.02854 -7.90707,8.87847 -11.83333,11.01554 -4.25806,2.3177 -9.76384,3.43218 -14.39755,2.91434 -4.44925,-0.49722 -8.06321,-1.75023 -11.49615,-3.98589 -9.04341,-5.88954 -12.02644,-15.1252 -7.62934,-23.62115 1.07517,-2.07733 4.42511,-5.48607 6.31271,-6.42349 3.57174,-1.77379 8.02357,-1.76696 11.3923,0.0175 1.81961,0.96386 4.35541,3.63631 5.00488,5.27458 0.7984,2.0139 0.7701,4.80416 -0.067,6.60795 -0.8084,1.74206 -2.47458,3.48712 -4.0829,4.27623 -1.74815,0.85773 -4.1939,0.88043 -5.91023,0.0548 -1.3234,-0.63655 -2.66322,-1.93191 -3.27957,-3.17067 -0.6167,-1.23949 -0.56842,-3.56148 0.10054,-4.83828 0.57698,-1.10114 0.60387,-1.22143 0.27311,-1.22143 -0.56377,0 -2.35988,2.01538 -3.0571,3.43036 -0.69592,1.41232 -0.75111,1.69428 -0.75111,3.83816 0,2.01315 0.0782,2.47891 0.60148,3.58382 1.74818,3.69124 6.43126,7.17277 10.99969,8.1775 2.07979,0.45741 5.68823,0.46477 7.81217,0.0159 4.64984,-0.98256 10.18545,-5.20121 13.62963,-10.38701 3.65477,-5.50289 5.14718,-10.82485 4.91249,-17.51819 -0.24263,-6.9212 -2.30456,-12.1743 -7.12594,-18.15453 -7.94008,-9.84853 -19.60979,-16.39262 -32.79393,-18.39007 -3.65396,-0.55359 -10.89849,-0.5532 -14.66398,7.1e-4 -3.75288,0.55212 -8.29954,1.74704 -11.5994,3.04843 -3.06027,1.20691 -6.20633,2.72576 -6.44493,3.1115 -0.0888,0.14358 1.08376,1.52046 2.7091,3.18109 3.17263,3.2415 4.70288,5.08354 6.94016,8.35409 4.65601,6.8064 7.77971,14.64176 9.20534,23.09008 0.62819,3.72293 0.85602,10.93696 0.4608,14.59182 -1.13796,10.52358 -4.98588,20.46228 -11.05727,28.55964 -5.94382,7.92726 -14.94001,13.35546 -24.68848,14.8967 -2.54873,0.40297 -9.30591,0.46777 -11.75908,0.11278 z"
       style="fill:#9b2264;fill-opacity:1;stroke-width:0.231007" />
  </g>
</svg>
